<svg width="266" height="75" viewBox="0 0 266 75" fill="none" xmlns="http://www.w3.org/2000/svg">
<path fill-rule="evenodd" clip-rule="evenodd" d="M42 12C42.841 12 43.6698 12.0519 44.4836 12.1527C47.1185 18.8471 53.251 23.7897 60.6267 24.702C61.5132 26.963 62 29.4246 62 32V54C62 65.0457 53.0457 74 42 74H31.7527C31.755 73.8743 31.7562 73.7483 31.7562 73.622C31.7562 62.5763 22.8019 53.5854 11.7562 53.5854H7.14645C4.636 53.5854 2.23358 54.0498 0.0197669 54.8972C0.0066351 54.5998 0 54.3007 0 54V32C0 20.9543 8.9543 12 20 12H42Z" fill="#71C9FF"/>
<path fill-rule="evenodd" clip-rule="evenodd" d="M42 12C42.841 12 43.6698 12.0519 44.4836 12.1527C47.1185 18.8471 53.251 23.7897 60.6267 24.702C61.5132 26.963 62 29.4246 62 32V54C62 65.0457 53.0457 74 42 74H31.7527C31.755 73.8743 31.7562 73.7483 31.7562 73.622C31.7562 62.5763 22.8019 53.5854 11.7562 53.5854H7.14645C4.636 53.5854 2.23358 54.0498 0.0197669 54.8972C0.0066351 54.5998 0 54.3007 0 54V32C0 20.9543 8.9543 12 20 12H42Z" fill="#71C9FF"/>
<path d="M11.3413 32.7928C11.3413 26.3202 16.5883 21.0732 23.0608 21.0732H37.4267C43.8992 21.0732 49.1462 26.3202 49.1462 32.7928C49.1462 39.2653 43.8992 44.5123 37.4267 44.5123H23.0608C16.5883 44.5123 11.3413 39.2653 11.3413 32.7928Z" fill="white"/>
<path d="M11.3413 32.7928C11.3413 26.3202 16.5883 21.0732 23.0608 21.0732H37.4267C43.8992 21.0732 49.1462 26.3202 49.1462 32.7928C49.1462 39.2653 43.8992 44.5123 37.4267 44.5123H23.0608C16.5883 44.5123 11.3413 39.2653 11.3413 32.7928Z" fill="white"/>
<path d="M33.3859 42.2195C32.0682 40.1451 32.6817 37.3952 34.7562 36.0775C36.8306 34.7598 39.5805 35.3733 40.8982 37.4478L53.5653 57.3902C54.883 59.4646 54.2695 62.2145 52.1951 63.5322C50.1206 64.8499 47.3707 64.2364 46.053 62.1619L33.3859 42.2195Z" fill="white"/>
<path fill-rule="evenodd" clip-rule="evenodd" d="M42 12C42.841 12 43.6698 12.0519 44.4836 12.1527C47.1185 18.8471 53.251 23.7897 60.6267 24.702C61.5132 26.963 62 29.4246 62 32V54C62 65.0457 53.0457 74 42 74H31.7527C31.755 73.8743 31.7562 73.7483 31.7562 73.622C31.7562 62.5763 22.8019 53.5854 11.7562 53.5854H7.14645C4.636 53.5854 2.23358 54.0498 0.0197669 54.8972C0.0066351 54.5998 0 54.3007 0 54V32C0 20.9543 8.9543 12 20 12H42Z" fill="#71C9FF"/>
<path fill-rule="evenodd" clip-rule="evenodd" d="M42 12C42.841 12 43.6698 12.0519 44.4836 12.1527C47.1185 18.8471 53.251 23.7897 60.6267 24.702C61.5132 26.963 62 29.4246 62 32V54C62 65.0457 53.0457 74 42 74H31.7527C31.755 73.8743 31.7562 73.7483 31.7562 73.622C31.7562 62.5763 22.8019 53.5854 11.7562 53.5854H7.14645C4.636 53.5854 2.23358 54.0498 0.0197669 54.8972C0.0066351 54.5998 0 54.3007 0 54V32C0 20.9543 8.9543 12 20 12H42Z" fill="#71C9FF"/>
<path d="M11.3413 32.7928C11.3413 26.3202 16.5883 21.0732 23.0608 21.0732H37.4267C43.8992 21.0732 49.1462 26.3202 49.1462 32.7928C49.1462 39.2653 43.8992 44.5123 37.4267 44.5123H23.0608C16.5883 44.5123 11.3413 39.2653 11.3413 32.7928Z" fill="white"/>
<path d="M11.3413 32.7928C11.3413 26.3202 16.5883 21.0732 23.0608 21.0732H37.4267C43.8992 21.0732 49.1462 26.3202 49.1462 32.7928C49.1462 39.2653 43.8992 44.5123 37.4267 44.5123H23.0608C16.5883 44.5123 11.3413 39.2653 11.3413 32.7928Z" fill="white"/>
<path d="M33.3859 42.2195C32.0682 40.1451 32.6817 37.3952 34.7562 36.0775C36.8306 34.7598 39.5805 35.3733 40.8982 37.4478L53.5653 57.3902C54.883 59.4646 54.2695 62.2145 52.1951 63.5322C50.1206 64.8499 47.3707 64.2364 46.053 62.1619L33.3859 42.2195Z" fill="white"/>
<path d="M88.5988 40.05C92.6655 39.15 94.8988 38.65 95.2988 38.55C95.4322 38.5167 95.7155 38.4667 96.1488 38.4C96.5822 38.3 96.9155 38.2167 97.1488 38.15C97.3822 38.0833 97.6322 37.9833 97.8988 37.85C98.1988 37.7167 98.4322 37.5667 98.5988 37.4C99.9322 36.0333 100.199 34.2667 99.3988 32.1C98.8655 30.6667 97.5822 29.7167 95.5488 29.25C94.9822 29.1167 94.3988 29.05 93.7988 29.05C93.1988 29.0167 92.5655 29.0667 91.8988 29.2C91.2655 29.3 90.7155 29.4 90.2488 29.5C89.8155 29.6 89.2322 29.75 88.4988 29.95C87.8322 30.15 87.5322 30.5667 87.5988 31.2C87.6322 31.7 87.6988 32.55 87.7988 33.75C87.8988 34.9167 87.9822 35.8167 88.0488 36.45C88.0488 36.5833 88.2322 37.7833 88.5988 40.05ZM77.7488 20.95C81.4155 19.5167 84.8988 18.7667 88.1988 18.7C88.9988 18.6667 90.6988 18.5833 93.2988 18.45C95.8988 18.2833 97.9155 18.2167 99.3488 18.25C104.049 18.35 107.665 20.25 110.199 23.95C112.265 26.95 112.699 30.45 111.499 34.45C110.465 37.8833 108.582 40.8667 105.849 43.4C105.782 43.4333 105.215 43.8667 104.149 44.7L104.399 45.05C106.632 45.7167 107.815 46.0667 107.949 46.1C109.749 46.5667 110.832 48.0167 111.199 50.45C111.365 51.65 111.515 52.9 111.649 54.2C111.782 55.5 111.915 57.0167 112.049 58.75C112.182 60.4833 112.282 61.7333 112.349 62.5C112.415 63.2333 112.049 63.65 111.249 63.75C106.182 64.4167 103.049 64.85 101.849 65.05C101.249 65.15 100.815 65.0833 100.549 64.85C100.315 64.65 100.165 64.2667 100.099 63.7C100.032 63.1 99.9155 62.2167 99.7488 61.05C99.6155 59.9167 99.5155 59.15 99.4488 58.75C99.2155 56.9167 98.1822 56.0167 96.3488 56.05C94.1822 56.05 92.9322 56.05 92.5988 56.05C91.8322 56.05 91.2822 56.2 90.9488 56.5C90.6155 56.7667 90.4322 57.2833 90.3988 58.05C90.3655 58.3833 90.2488 60.6333 90.0488 64.8C89.9488 64.8667 89.8655 64.9 89.7988 64.9C88.5655 65 86.7988 65.15 84.4988 65.35C82.1988 65.55 80.5655 65.6833 79.5988 65.75C79.1655 65.8167 78.7988 65.6667 78.4988 65.3C78.2322 64.9333 78.0988 64.4 78.0988 63.7C78.0655 63.4 78.0488 61.7167 78.0488 58.65C78.0488 51.3167 78.0488 46.5333 78.0488 44.3C78.0488 43.7 78.0322 41.6167 77.9988 38.05C77.9988 34.4833 77.9988 31.75 77.9988 29.85C77.9988 29.0167 78.0322 27.8167 78.0988 26.25C78.1988 24.65 78.2488 23.4667 78.2488 22.7C78.2488 22.5333 78.2155 22.3667 78.1488 22.2C78.1155 22.0333 78.0488 21.8167 77.9488 21.55C77.8488 21.2833 77.7822 21.0833 77.7488 20.95ZM115.499 19.4C115.665 19.3667 115.899 19.3 116.199 19.2C116.532 19.1 116.815 19.0333 117.049 19C117.282 18.9333 117.515 18.9 117.749 18.9C118.515 18.9 120.232 18.9 122.899 18.9C125.599 18.9 127.349 18.8833 128.149 18.85C128.849 18.8167 129.349 18.95 129.649 19.25C129.982 19.5167 130.249 20 130.449 20.7C131.382 24.4 132.482 28.5 133.749 33C133.749 33 133.799 33.2 133.899 33.6C133.999 33.9667 134.082 34.35 134.149 34.75C134.249 35.1167 134.365 35.5167 134.499 35.95C134.632 36.35 134.732 36.6333 134.799 36.8C135.499 35.2 136.415 32.1667 137.549 27.7C138.682 23.2 139.515 20.3333 140.049 19.1C145.115 19.0333 148.032 19 148.799 19C149.032 19 149.649 18.9667 150.649 18.9C151.682 18.8333 152.482 18.8167 153.049 18.85C153.849 18.9167 154.332 19.1167 154.499 19.45C154.699 19.7833 154.615 20.3 154.249 21C153.815 21.8667 153.132 23.5833 152.199 26.15C151.265 28.7167 150.549 30.4667 150.049 31.4C148.315 34.7333 146.582 38.05 144.849 41.35C144.582 41.8833 144.315 42.3 144.049 42.6C142.982 43.7 142.515 45.2667 142.649 47.3C142.749 48.8333 142.782 51.4833 142.749 55.25C142.749 58.9833 142.799 61.6667 142.899 63.3C141.265 63.7333 139.115 63.9667 136.449 64C133.815 64.0667 131.582 64.0167 129.749 63.85L126.999 63.6C126.932 62.7 126.865 61.5333 126.799 60.1C126.732 58.7 126.632 56.35 126.499 53.05C126.399 49.7167 126.382 47.0667 126.449 45.1C126.549 44.1333 126.549 43.2167 126.449 42.35C126.349 41.45 126.115 40.5667 125.749 39.7C125.415 38.8 125.082 38.0667 124.749 37.5C124.449 36.9 123.999 36.1167 123.399 35.15C122.832 34.1833 122.415 33.4667 122.149 33C121.615 32 120.782 30.25 119.649 27.75C118.515 25.2167 117.699 23.5 117.199 22.6C117.065 22.3 116.799 21.8167 116.399 21.15C116.032 20.45 115.732 19.8667 115.499 19.4ZM168.849 47.45C168.715 48.5167 168.499 51.2 168.199 55.5C167.899 59.8 167.665 62.5667 167.499 63.8H156.249C156.249 63 156.182 61.5833 156.049 59.55C155.949 57.5167 155.899 55.9333 155.899 54.8C155.932 53.3333 156.032 51.1167 156.199 48.15C156.399 45.1833 156.515 42.95 156.549 41.45C156.582 39.6167 156.565 37.0167 156.499 33.65C156.465 30.25 156.449 28.0333 156.449 27C156.415 26.8333 156.499 25.1833 156.699 22.05C157.699 21.6833 158.782 21.4167 159.949 21.25C161.115 21.0833 162.099 21 162.899 21C163.732 21 164.849 21.0167 166.249 21.05C167.649 21.0833 168.665 21.1 169.299 21.1C169.699 21.1 170.149 21.4 170.649 22C172.682 24.6 175.282 30.1333 178.449 38.6C178.482 38.6667 178.899 39.6 179.699 41.4C180.065 39.5333 180.399 36.0333 180.699 30.9C181.032 25.7333 181.382 22.25 181.749 20.45C187.982 20.45 191.432 20.4333 192.099 20.4C192.632 20.4 193.032 20.5333 193.299 20.8C193.599 21.0667 193.782 21.3333 193.849 21.6C193.915 21.8333 193.965 22.1667 193.999 22.6C194.099 24.1333 194.165 26.8333 194.199 30.7C194.199 31.8333 194.149 33.45 194.049 35.55C193.982 36.7167 193.882 38.4 193.749 40.6C193.615 42.7667 193.499 44.75 193.399 46.55C193.332 48.3167 193.265 49.9833 193.199 51.55C193.132 53.45 193.182 56.05 193.349 59.35C193.382 59.8167 193.299 60.15 193.099 60.35C192.932 60.5833 192.632 60.7833 192.199 60.95C190.732 61.45 189.299 61.8 187.899 62C186.499 62.2333 185.165 62.3333 183.899 62.3C182.632 62.3 181.165 62.2833 179.499 62.25C178.965 62.25 178.499 62.2333 178.099 62.2C177.699 62.1667 177.415 62.15 177.249 62.15C177.082 62.15 176.615 62.1667 175.849 62.2C175.315 62.2 174.915 62.0833 174.649 61.85C174.415 61.65 174.215 61.3 174.049 60.8C173.782 59.9667 172.982 57.7167 171.649 54.05C170.349 50.3833 169.582 48.2 169.349 47.5L168.849 47.45ZM213.149 46.3C213.449 49.7 213.649 51.7 213.749 52.3C213.782 52.4667 213.965 52.6333 214.299 52.8C214.665 52.9667 214.982 53.05 215.249 53.05C216.749 53.05 218.899 53.0167 221.699 52.95C224.499 52.8833 226.449 52.85 227.549 52.85C228.182 52.85 229.082 52.95 230.249 53.15C230.915 53.25 231.165 53.6833 230.999 54.45C230.632 56.45 230.399 57.9667 230.299 59C230.132 60.9667 229.149 62.1833 227.349 62.65C224.215 63.45 220.449 63.8 216.049 63.7C215.449 63.6667 211.849 63.6333 205.249 63.6C203.515 63.6 202.282 63.2833 201.549 62.65C200.849 62.05 200.365 60.8833 200.099 59.15C199.599 55.7167 199.282 52.7833 199.149 50.35C198.915 46.3167 198.915 43.2667 199.149 41.2C199.415 38.8667 200.182 34.25 201.449 27.35C201.582 26.5833 201.982 25.3333 202.649 23.6C203.015 22.6 203.599 22.0833 204.399 22.05C204.932 22.05 205.899 21.9833 207.299 21.85C208.699 21.7167 209.765 21.65 210.499 21.65C213.932 21.6833 217.215 21.2667 220.349 20.4C221.015 20.3667 221.399 20.35 221.499 20.35C221.632 20.3167 222.049 20.35 222.749 20.45C223.449 20.55 223.865 20.6 223.999 20.6C224.532 20.6667 225.099 20.75 225.699 20.85C226.299 20.9167 226.965 21 227.699 21.1C228.432 21.2 229.015 21.2833 229.449 21.35C230.215 21.45 230.599 21.9333 230.599 22.8C230.565 23.6 230.549 24.7333 230.549 26.2C230.549 27.6333 230.549 28.7667 230.549 29.6C230.549 30.3667 230.282 31 229.749 31.5C229.249 31.9667 228.615 32.2 227.849 32.2C227.782 32.2 226.665 32.1833 224.499 32.15C222.365 32.0833 221.265 32.0833 221.199 32.15C219.499 32.2833 217.615 32.6167 215.549 33.15C215.282 33.2167 215.015 33.8 214.749 34.9C214.715 35 214.782 35.15 214.949 35.35C215.115 35.55 215.265 35.6667 215.399 35.7C217.465 36.1333 218.999 36.3833 219.999 36.45C221.099 36.55 222.632 36.65 224.599 36.75C226.599 36.85 227.949 36.9167 228.649 36.95C229.315 36.9833 229.782 37.15 230.049 37.45C230.315 37.7167 230.432 38.1667 230.399 38.8C230.399 41.7333 230.349 43.8167 230.249 45.05C230.215 45.3167 230.099 45.6 229.899 45.9C229.699 46.1667 229.465 46.3667 229.199 46.5C228.332 46.9 227.415 47.15 226.449 47.25C225.149 47.35 223.849 47.4 222.549 47.4C220.115 47.4 217.665 47.2167 215.199 46.85C215.165 46.8167 214.482 46.6333 213.149 46.3Z" fill="#71C9FF"/>
</svg>