<svg width="360" height="164" viewBox="0 0 360 164" fill="none" xmlns="http://www.w3.org/2000/svg">
<g filter="url(#filter0_d_721_90)">
<rect x="14" y="13" width="332" height="136" rx="27.2" fill="white"/>
</g>
<path d="M139.61 124.08C137.285 117.574 132.163 111.824 125.037 107.723C117.912 103.623 109.181 101.4 100.2 101.4C91.2184 101.4 82.4879 103.623 75.3624 107.723C68.237 111.824 63.1147 117.574 60.7901 124.08" stroke="#CACACA" stroke-width="5.82857" stroke-linecap="round"/>
<circle cx="100.2" cy="60.6" r="20.4" stroke="#CACACA" stroke-width="5.82857" stroke-linecap="round"/>
<path d="M208.371 65.4219C215.715 65.4609 219.895 67.1797 219.934 70.5781C219.895 73.8984 215.715 75.6172 208.371 75.6172C200.988 75.6172 196.77 73.8984 196.77 70.5781C196.77 67.1797 200.988 65.4609 208.371 65.4219ZM208.371 66.5547C202.121 66.5547 198.098 68.0391 198.098 70.5781C198.098 73.0391 202.121 74.5234 208.371 74.5625C214.543 74.5234 218.605 73.0391 218.605 70.5781C218.605 68.0391 214.543 66.5547 208.371 66.5547ZM221.809 45.1484V46.3203H194.66V45.1484H207.746V41.125H208.957V45.1484H221.809ZM208.293 48.1953C215.051 48.1953 218.918 49.8359 218.957 53C218.918 56.0664 215.305 57.7266 208.957 57.8047V61.3984H223.801V62.5703H192.863V61.3984H207.746V57.8047C201.359 57.7461 197.707 56.0859 197.707 53C197.707 49.8359 201.574 48.1953 208.293 48.1953ZM208.293 49.25C202.629 49.25 198.996 50.6953 198.996 53C198.996 55.3047 202.629 56.75 208.293 56.75C213.957 56.75 217.629 55.3047 217.668 53C217.629 50.6953 213.957 49.25 208.293 49.25ZM255.129 41.8281V59.4844H253.84V41.8281H255.129ZM245.051 43.8984C245.051 51.9453 237.98 57.6875 228.645 60.1484L228.137 59.0547C236.633 56.8086 243.215 51.9844 243.723 45.0703H229.738V43.8984H245.051ZM255.129 61.3203V68.5469H235.012V74.3281H256.613V75.4609H233.84V67.4531H253.918V62.4922H233.684V61.3203H255.129ZM292.941 59.3672V60.4609H262.004V59.3672H276.848V54.3281H266.105V43.4688H288.918V44.6016H267.355V53.1562H289.23V54.3281H278.02V59.3672H292.941ZM277.512 63.6641C284.699 63.7031 289.035 65.8906 289.074 69.6797C289.035 73.5078 284.699 75.6562 277.512 75.6953C270.285 75.6562 265.91 73.5078 265.91 69.6797C265.91 65.8906 270.285 63.7031 277.512 63.6641ZM277.512 64.8359C271.301 64.8359 267.199 66.7109 267.199 69.6797C267.199 72.6484 271.301 74.5234 277.512 74.5234C283.645 74.5234 287.785 72.6484 287.785 69.6797C287.785 66.7109 283.645 64.8359 277.512 64.8359Z" fill="black"/>
<path d="M215.417 119.293C211.667 119.293 208.825 116.949 208.796 113.697H209.763C209.792 116.422 212.253 118.355 215.417 118.355C218.786 118.355 221.071 116.188 221.101 113.434C221.071 110.504 218.493 108.541 214.831 108.541H214.274V107.604H214.831C217.995 107.604 220.427 105.816 220.427 102.975C220.427 100.367 218.376 98.4043 215.388 98.4043C212.458 98.4043 210.261 100.309 210.261 103.092H209.294C209.323 99.8105 211.901 97.4961 215.417 97.4961C218.903 97.4961 221.364 99.8691 221.394 102.975C221.364 105.436 219.812 107.311 217.38 107.984V108.072C220.222 108.746 222.038 110.768 222.038 113.463C222.038 116.744 219.284 119.293 215.417 119.293ZM231.765 97.7891V119H230.769V98.8145H230.681L225.905 101.891V100.807L230.593 97.7891H231.765ZM238.151 119V118.238L245.183 110.27C248.347 106.666 249.313 105.113 249.313 103.033C249.313 100.338 247.233 98.4043 244.421 98.4043C241.462 98.4043 239.44 100.543 239.44 103.18H238.474C238.474 100.016 240.964 97.4961 244.421 97.4961C247.79 97.4961 250.251 99.8691 250.28 103.033C250.251 105.377 249.226 107.076 245.798 110.943L239.616 117.975V118.062H251.423V119H238.151ZM276.735 99.957V100.836H256.228V99.957H266.071V96.207H267.009V99.957H276.735ZM278.229 116.803V117.682H254.909V116.803H266.071V112.584C261.34 112.467 258.454 110.768 258.483 107.867C258.454 104.879 261.53 103.15 266.54 103.15C271.521 103.15 274.597 104.879 274.626 107.867C274.597 110.768 271.711 112.467 267.009 112.584V116.803H278.229ZM266.54 103.971C262.233 103.971 259.362 105.523 259.362 107.867C259.362 110.182 262.233 111.734 266.54 111.734C270.788 111.734 273.688 110.182 273.718 107.867C273.688 105.523 270.788 103.971 266.54 103.971Z" fill="#004EC4"/>
<defs>
<filter id="filter0_d_721_90" x="0.4" y="0.76" width="359.2" height="163.2" filterUnits="userSpaceOnUse" color-interpolation-filters="sRGB">
<feFlood flood-opacity="0" result="BackgroundImageFix"/>
<feColorMatrix in="SourceAlpha" type="matrix" values="0 0 0 0 0 0 0 0 0 0 0 0 0 0 0 0 0 0 127 0" result="hardAlpha"/>
<feOffset dy="1.36"/>
<feGaussianBlur stdDeviation="6.8"/>
<feComposite in2="hardAlpha" operator="out"/>
<feColorMatrix type="matrix" values="0 0 0 0 0 0 0 0 0 0 0 0 0 0 0 0 0 0 0.07 0"/>
<feBlend mode="normal" in2="BackgroundImageFix" result="effect1_dropShadow_721_90"/>
<feBlend mode="normal" in="SourceGraphic" in2="effect1_dropShadow_721_90" result="shape"/>
</filter>
</defs>
</svg>
