<svg width="152" height="175" viewBox="0 0 152 175" fill="none" xmlns="http://www.w3.org/2000/svg">
<g filter="url(#filter0_d_765_88)">
<rect x="4" width="144" height="160" rx="17" fill="white"/>
<rect x="5.5" y="1.5" width="141" height="157" rx="15.5" stroke="black" stroke-opacity="0.87" stroke-width="3"/>
</g>
<path d="M4.99316 21C31.4113 45.7855 125.549 46.8753 146.014 21" stroke="black" stroke-width="2"/>
<line x1="42.7379" y1="2" x2="42.7379" y2="37" stroke="black" stroke-width="2"/>
<path d="M123.165 94.5C123.165 120.159 101.849 141 75.5034 141C49.1574 141 27.8413 120.159 27.8413 94.5C27.8413 68.8414 49.1574 48 75.5034 48C101.849 48 123.165 68.8414 123.165 94.5Z" fill="white" stroke="black" stroke-width="2"/>
<path d="M83.4414 21.5C83.4414 25.6487 80.1032 29 76 29C71.8967 29 68.5586 25.6487 68.5586 21.5C68.5586 17.3513 71.8967 14 76 14C80.1032 14 83.4414 17.3513 83.4414 21.5Z" fill="white" stroke="black" stroke-width="2"/>
<path d="M114.228 94.5C114.228 114.628 97.3655 131 76.4965 131C55.6276 131 38.7655 114.628 38.7655 94.5C38.7655 74.3718 55.6276 58 76.4965 58C97.3655 58 114.228 74.3718 114.228 94.5Z" fill="white" stroke="black" stroke-width="2"/>
<rect x="99.3379" y="8" width="23.8345" height="5" rx="1.5" fill="black"/>
<g filter="url(#filter1_di_765_88)">
<rect x="4" width="144" height="167" rx="17" fill="#424242"/>
<rect x="5.5" y="1.5" width="141" height="164" rx="15.5" stroke="#555555" stroke-width="3"/>
</g>
<line y1="-1" x2="30.1818" y2="-1" transform="matrix(0.00279556 0.999996 -0.999996 0.00283452 55.557 1.8183)" stroke="#555555" stroke-width="2"/>
<line x1="145" y1="33" x2="6.99999" y2="33" stroke="#555555" stroke-width="2"/>
<path d="M83.4414 16.5C83.4414 20.6487 80.1032 24 76 24C71.8967 24 68.5586 20.6487 68.5586 16.5C68.5586 12.3513 71.8967 9 76 9C80.1032 9 83.4414 12.3513 83.4414 16.5Z" fill="#424242" stroke="#555555" stroke-width="2"/>
<path d="M123.165 102.5C123.165 128.159 101.849 149 75.5034 149C49.1574 149 27.8413 128.159 27.8413 102.5C27.8413 76.8414 49.1574 56 75.5034 56C101.849 56 123.165 76.8414 123.165 102.5Z" fill="#424242" stroke="#555555" stroke-width="2"/>
<path d="M110.255 103C110.255 122.337 94.6898 138 75.5034 138C56.3171 138 40.7517 122.337 40.7517 103C40.7517 83.6635 56.3171 68 75.5034 68C94.6898 68 110.255 83.6635 110.255 103Z" fill="white" stroke="#555555" stroke-width="2"/>
<path d="M110.253 103C110.253 122.337 94.6881 138 75.5017 138C56.3154 138 40.75 122.337 40.75 103C40.75 83.6635 56.3154 68 75.5017 68C94.6881 68 110.253 83.6635 110.253 103Z" fill="url(#paint0_linear_765_88)" stroke="#555555" stroke-width="2"/>
<rect x="14.9241" y="23" width="34.7586" height="4" rx="1.5" fill="#555555"/>
<rect x="99.0198" y="9.675" width="29.4362" height="16.65" rx="2.825" fill="#424242" stroke="#555555" stroke-width="1.35"/>
<defs>
<filter id="filter0_d_765_88" x="0" y="0" width="152" height="168" filterUnits="userSpaceOnUse" color-interpolation-filters="sRGB">
<feFlood flood-opacity="0" result="BackgroundImageFix"/>
<feColorMatrix in="SourceAlpha" type="matrix" values="0 0 0 0 0 0 0 0 0 0 0 0 0 0 0 0 0 0 127 0" result="hardAlpha"/>
<feOffset dy="4"/>
<feGaussianBlur stdDeviation="2"/>
<feComposite in2="hardAlpha" operator="out"/>
<feColorMatrix type="matrix" values="0 0 0 0 0 0 0 0 0 0 0 0 0 0 0 0 0 0 0.25 0"/>
<feBlend mode="normal" in2="BackgroundImageFix" result="effect1_dropShadow_765_88"/>
<feBlend mode="normal" in="SourceGraphic" in2="effect1_dropShadow_765_88" result="shape"/>
</filter>
<filter id="filter1_di_765_88" x="0" y="0" width="152" height="175" filterUnits="userSpaceOnUse" color-interpolation-filters="sRGB">
<feFlood flood-opacity="0" result="BackgroundImageFix"/>
<feColorMatrix in="SourceAlpha" type="matrix" values="0 0 0 0 0 0 0 0 0 0 0 0 0 0 0 0 0 0 127 0" result="hardAlpha"/>
<feOffset dy="4"/>
<feGaussianBlur stdDeviation="2"/>
<feComposite in2="hardAlpha" operator="out"/>
<feColorMatrix type="matrix" values="0 0 0 0 0 0 0 0 0 0 0 0 0 0 0 0 0 0 0.25 0"/>
<feBlend mode="normal" in2="BackgroundImageFix" result="effect1_dropShadow_765_88"/>
<feBlend mode="normal" in="SourceGraphic" in2="effect1_dropShadow_765_88" result="shape"/>
<feColorMatrix in="SourceAlpha" type="matrix" values="0 0 0 0 0 0 0 0 0 0 0 0 0 0 0 0 0 0 127 0" result="hardAlpha"/>
<feOffset dy="4"/>
<feGaussianBlur stdDeviation="2"/>
<feComposite in2="hardAlpha" operator="arithmetic" k2="-1" k3="1"/>
<feColorMatrix type="matrix" values="0 0 0 0 0 0 0 0 0 0 0 0 0 0 0 0 0 0 0.25 0"/>
<feBlend mode="normal" in2="shape" result="effect2_innerShadow_765_88"/>
</filter>
<linearGradient id="paint0_linear_765_88" x1="73.6093" y1="157.789" x2="72.6315" y2="46.7868" gradientUnits="userSpaceOnUse">
<stop stop-color="#363636"/>
<stop offset="0.734375" stop-color="#FDFDFD" stop-opacity="0.0104167"/>
<stop offset="1" stop-color="white" stop-opacity="0"/>
</linearGradient>
</defs>
</svg>