<svg width="122" height="55" viewBox="0 0 122 55" fill="none" xmlns="http://www.w3.org/2000/svg">
<g filter="url(#filter0_d_796_97)">
<rect x="7" y="6.38965" width="108" height="41.6104" rx="9.35065" fill="white"/>
</g>
<path d="M57.1926 32.3004V33.9806H42.1074V32.3004H48.609V29.6158H43.8971V24.2099H53.3939V22.1645H43.8606V20.5208H55.4028V25.8171H45.9243V27.9538H55.7864V29.6158H50.6179V32.3004H57.1926ZM71.2142 20.9956V22.8585C71.2142 25.0683 71.2142 27.3512 70.6115 30.8211L68.5478 30.6385C69.187 27.3877 69.187 24.9952 69.187 22.8585V22.6393H59.672V20.9956H71.2142ZM73.1318 31.9717V33.6336H58.0831V31.9717H73.1318ZM78.4967 20.5938C80.9805 20.5938 82.7703 22.8585 82.7885 26.4197C82.7703 30.0176 80.9805 32.2639 78.4967 32.2639C75.9947 32.2639 74.1867 30.0176 74.2049 26.4197C74.1867 22.8585 75.9947 20.5938 78.4967 20.5938ZM78.4967 22.4201C77.1088 22.4201 76.1591 23.8994 76.1591 26.4197C76.1591 28.9583 77.1088 30.4376 78.4967 30.4376C79.903 30.4376 80.8344 28.9583 80.8344 26.4197C80.8344 23.8994 79.903 22.4201 78.4967 22.4201ZM86.989 19.3885V25.7257H89.5276V27.4425H86.989V35.8982H84.9618V19.3885H86.989ZM105.083 26.7302V28.4104H98.5269V30.0541H96.5179V28.4104H90.0346V26.7302H105.083ZM98.5451 31.1133C98.5451 32.6292 100.554 33.9806 103.969 34.2728L103.348 35.8069C100.591 35.5512 98.5086 34.5924 97.5041 33.177C96.4997 34.5742 94.4451 35.5512 91.7148 35.8069L91.039 34.2728C94.4177 33.9806 96.4631 32.5744 96.4631 31.1133V30.7298H98.5451V31.1133ZM97.5407 19.6076C101.212 19.6076 103.476 20.7217 103.494 22.6941C103.476 24.6482 101.212 25.7805 97.5407 25.7623C93.9063 25.7805 91.5869 24.6482 91.5869 22.6941C91.5869 20.7217 93.9063 19.6076 97.5407 19.6076ZM97.5407 21.1417C95.0934 21.1235 93.6872 21.6896 93.7054 22.6941C93.6872 23.662 95.0934 24.2282 97.5407 24.2282C99.9696 24.2282 101.394 23.662 101.394 22.6941C101.394 21.6896 99.9696 21.1235 97.5407 21.1417Z" fill="black"/>
<path d="M27.1235 31.5505V31.9658C27.1235 33.6797 27.1235 34.5367 26.5728 35.0144C26.022 35.492 25.1736 35.3709 23.4769 35.1285L20.0562 34.6398C18.0945 34.3596 17.1136 34.2194 16.5277 33.5438C15.9417 32.8682 15.9417 31.8774 15.9417 29.8958L15.9417 25.4291C15.9417 23.4474 15.9417 22.4566 16.5277 21.781C17.1136 21.1054 18.0945 20.9653 20.0562 20.685L23.4769 20.1963C25.1736 19.9539 26.022 19.8328 26.5728 20.3104C27.1235 20.7881 27.1235 21.6451 27.1235 23.359V23.6162" stroke="black" stroke-width="1.5974"/>
<path d="M19.9351 27.6624L19.3114 28.1613L18.9122 27.6624L19.3114 27.1634L19.9351 27.6624ZM29.5195 26.8637C29.9606 26.8637 30.3182 27.2213 30.3182 27.6624C30.3182 28.1035 29.9606 28.4611 29.5195 28.4611V26.8637ZM22.5062 32.1548L19.3114 28.1613L20.5587 27.1634L23.7535 31.1569L22.5062 32.1548ZM19.3114 27.1634L22.5062 23.1699L23.7535 24.1678L20.5587 28.1613L19.3114 27.1634ZM19.9351 26.8637H29.5195V28.4611H19.9351V26.8637Z" fill="black"/>
<defs>
<filter id="filter0_d_796_97" x="0.641559" y="0.667051" width="120.717" height="54.3272" filterUnits="userSpaceOnUse" color-interpolation-filters="sRGB">
<feFlood flood-opacity="0" result="BackgroundImageFix"/>
<feColorMatrix in="SourceAlpha" type="matrix" values="0 0 0 0 0 0 0 0 0 0 0 0 0 0 0 0 0 0 127 0" result="hardAlpha"/>
<feOffset dy="0.635844"/>
<feGaussianBlur stdDeviation="3.17922"/>
<feComposite in2="hardAlpha" operator="out"/>
<feColorMatrix type="matrix" values="0 0 0 0 0 0 0 0 0 0 0 0 0 0 0 0 0 0 0.04 0"/>
<feBlend mode="normal" in2="BackgroundImageFix" result="effect1_dropShadow_796_97"/>
<feBlend mode="normal" in="SourceGraphic" in2="effect1_dropShadow_796_97" result="shape"/>
</filter>
</defs>
</svg>