<svg width="154" height="171" viewBox="0 0 154 171" fill="none" xmlns="http://www.w3.org/2000/svg">
<g filter="url(#filter0_f_694_536)">
<rect x="4" y="4" width="145.187" height="162.886" rx="17" fill="white"/>
<rect x="5.5" y="5.5" width="142.187" height="159.886" rx="15.5" stroke="#CACACA" stroke-opacity="0.87" stroke-width="3"/>
</g>
<path d="M4.9248 25.2863C31.6037 50.6396 126.671 51.7543 147.337 25.2863" stroke="black" stroke-width="2"/>
<line x1="42.915" y1="5.85095" x2="42.915" y2="41.9451" stroke="black" stroke-width="2"/>
<path d="M84.3787 25.749C84.3787 30.0532 80.8924 33.5412 76.5935 33.5412C72.2946 33.5412 68.8083 30.0532 68.8083 25.749C68.8083 21.4448 72.2946 17.9568 76.5935 17.9568C80.8924 17.9568 84.3787 21.4448 84.3787 25.749Z" fill="white" stroke="black" stroke-width="2"/>
<path d="M124.143 100.251C124.143 126.261 102.665 147.376 76.1313 147.376C49.5976 147.376 28.1191 126.261 28.1191 100.251C28.1191 74.2414 49.5976 53.1255 76.1313 53.1255C102.665 53.1255 124.143 74.2414 124.143 100.251Z" fill="white" stroke="black" stroke-width="2"/>
<path d="M114.896 100.251C114.896 120.633 97.9763 137.196 77.0559 137.196C56.1354 137.196 39.2161 120.633 39.2161 100.251C39.2161 79.8686 56.1354 63.3059 77.0559 63.3059C97.9763 63.3059 114.896 79.8686 114.896 100.251Z" fill="white" stroke="black" stroke-width="2"/>
<rect x="100.175" y="12.3294" width="24.0437" height="4.62745" rx="1.5" fill="black"/>
<path d="M4.9248 25.2863C31.6037 50.6396 126.671 51.7543 147.337 25.2863" stroke="#CACACA" stroke-width="2"/>
<line x1="42.915" y1="5.85095" x2="42.915" y2="41.9451" stroke="#CACACA" stroke-width="2"/>
<path d="M84.3787 25.749C84.3787 30.0532 80.8924 33.5412 76.5935 33.5412C72.2946 33.5412 68.8083 30.0532 68.8083 25.749C68.8083 21.4448 72.2946 17.9568 76.5935 17.9568C80.8924 17.9568 84.3787 21.4448 84.3787 25.749Z" fill="white" stroke="black" stroke-width="2"/>
<ellipse cx="76.1313" cy="100.251" rx="49.0121" ry="48.1255" fill="white"/>
<path d="M124.143 100.251C124.143 126.261 102.665 147.376 76.1313 147.376C49.5976 147.376 28.1191 126.261 28.1191 100.251C28.1191 74.2414 49.5976 53.1255 76.1313 53.1255C102.665 53.1255 124.143 74.2414 124.143 100.251Z" stroke="#CACACA" stroke-opacity="0.67451" stroke-width="2"/>
<ellipse cx="77.0559" cy="100.251" rx="38.8398" ry="37.9451" fill="url(#paint0_linear_694_536)"/>
<path d="M114.896 100.251C114.896 120.633 97.9763 137.196 77.0559 137.196C56.1354 137.196 39.2161 120.633 39.2161 100.251C39.2161 79.8686 56.1354 63.3059 77.0559 63.3059C97.9763 63.3059 114.896 79.8686 114.896 100.251Z" stroke="black" stroke-opacity="0.67451" stroke-width="2"/>
<rect x="100.175" y="12.3294" width="24.0437" height="4.62745" rx="1.5" fill="black"/>
<defs>
<filter id="filter0_f_694_536" x="0" y="0" width="153.187" height="170.886" filterUnits="userSpaceOnUse" color-interpolation-filters="sRGB">
<feFlood flood-opacity="0" result="BackgroundImageFix"/>
<feBlend mode="normal" in="SourceGraphic" in2="BackgroundImageFix" result="shape"/>
<feGaussianBlur stdDeviation="2" result="effect1_foregroundBlur_694_536"/>
</filter>
<linearGradient id="paint0_linear_694_536" x1="77" y1="138" x2="77" y2="-15.5" gradientUnits="userSpaceOnUse">
<stop stop-color="#888888"/>
<stop offset="1" stop-color="#D9D9D9" stop-opacity="0"/>
</linearGradient>
</defs>
</svg>
