<svg xmlns="http://www.w3.org/2000/svg" width="42" height="42" viewBox="0 0 42 42" fill="none">
  <path d="M8.70361 22.007C8.70361 19.6732 8.70361 18.5063 9.17538 17.4806C9.64714 16.4548 10.5331 15.6954 12.3051 14.1766L14.024 12.7033C17.2268 9.95799 18.8282 8.58536 20.7358 8.58536C22.6433 8.58536 24.2447 9.95799 27.4475 12.7033L29.1664 14.1766C30.9384 15.6954 31.8244 16.4548 32.2961 17.4806C32.7679 18.5063 32.7679 19.6732 32.7679 22.007V29.2957C32.7679 32.5369 32.7679 34.1574 31.761 35.1643C30.7541 36.1712 29.1335 36.1712 25.8924 36.1712H15.5791C12.338 36.1712 10.7174 36.1712 9.71051 35.1643C8.70361 34.1574 8.70361 32.5369 8.70361 29.2957V22.007Z" stroke="#CACACA" stroke-width="3.01558"/>
  <path d="M25.0329 36.1712V27.3658C25.0329 26.533 24.3578 25.858 23.5251 25.858H17.9463C17.1135 25.858 16.4385 26.533 16.4385 27.3658V36.1712" stroke="#CACACA" stroke-width="3.01558" stroke-linecap="round" stroke-linejoin="round"/>
</svg>