<svg xmlns="http://www.w3.org/2000/svg" width="31" height="35" viewBox="0 0 31 35" fill="none">
  <path d="M1.5 18.4165C1.5 15.5734 1.5 14.1519 2.38324 13.2686C3.26648 12.3854 4.68804 12.3854 7.53115 12.3854H22.9688C25.812 12.3854 27.2335 12.3854 28.1168 13.2686C29 14.1519 29 15.5734 29 18.4165V23.6585C29 27.9231 29 30.0554 27.6751 31.3803C26.3503 32.7052 24.2179 32.7052 19.9533 32.7052H10.5467C6.28206 32.7052 4.14973 32.7052 2.82486 31.3803C1.5 30.0554 1.5 27.9231 1.5 23.6584V18.4165Z" stroke="#CACACA" stroke-width="3.01558"/>
  <path d="M22.125 10.692V9.10046C22.125 5.30351 19.047 2.22546 15.25 2.22546V2.22546C11.453 2.22546 8.375 5.30351 8.375 9.10046V10.692" stroke="#CACACA" stroke-width="3.01558" stroke-linecap="round"/>
  <ellipse cx="15.25" cy="22.5453" rx="3.4375" ry="3.38663" fill="#CACACA"/>
</svg>