<svg width="418" height="132" viewBox="0 0 418 132" fill="none" xmlns="http://www.w3.org/2000/svg">
<path fill-rule="evenodd" clip-rule="evenodd" d="M61.6 14.08C61.8873 14.08 62.1736 14.0846 62.4587 14.0937C65.8147 24.416 75.3582 31.9474 86.7116 32.3102C87.5479 34.8827 88 37.6286 88 40.48V75.68C88 90.2603 76.1803 102.08 61.6 102.08H45.0734V99.5044C45.0734 84.9241 33.2537 73.1044 18.6734 73.1044H8.15633C5.30987 73.1044 2.56862 73.5549 0 74.3885V40.48C0 25.8997 11.8197 14.08 26.4 14.08H61.6Z" fill="#71C9FF"/>
<path fill-rule="evenodd" clip-rule="evenodd" d="M61.6 14.08C61.8873 14.08 62.1736 14.0846 62.4587 14.0937C65.8147 24.416 75.3582 31.9474 86.7116 32.3102C87.5479 34.8827 88 37.6286 88 40.48V75.68C88 90.2603 76.1803 102.08 61.6 102.08H45.0734V99.5044C45.0734 84.9241 33.2537 73.1044 18.6734 73.1044H8.15633C5.30987 73.1044 2.56862 73.5549 0 74.3885V40.48C0 25.8997 11.8197 14.08 26.4 14.08H61.6Z" fill="#71C9FF"/>
<path d="M16.0977 43.5922C16.0977 34.4054 23.545 26.9581 32.7318 26.9581H53.1221C62.3088 26.9581 69.7562 34.4054 69.7562 43.5922C69.7562 52.779 62.3088 60.2263 53.122 60.2263H32.7318C23.545 60.2263 16.0977 52.779 16.0977 43.5922Z" fill="white"/>
<path d="M16.0977 43.5922C16.0977 34.4054 23.545 26.9581 32.7318 26.9581H53.1221C62.3088 26.9581 69.7562 34.4054 69.7562 43.5922C69.7562 52.779 62.3088 60.2263 53.122 60.2263H32.7318C23.545 60.2263 16.0977 52.779 16.0977 43.5922Z" fill="white"/>
<path d="M47.3864 56.9723C45.5161 54.0279 46.3869 50.1249 49.3313 48.2546C52.2757 46.3844 56.1788 47.2551 58.049 50.1995L76.0282 78.5048C77.8985 81.4492 77.0277 85.3523 74.0833 87.2225C71.1389 89.0928 67.2359 88.222 65.3656 85.2776L47.3864 56.9723Z" fill="white"/>
<path fill-rule="evenodd" clip-rule="evenodd" d="M61.6 14.08C61.8873 14.08 62.1736 14.0846 62.4587 14.0937C65.8147 24.416 75.3582 31.9474 86.7116 32.3102C87.5479 34.8827 88 37.6286 88 40.48V75.68C88 90.2603 76.1803 102.08 61.6 102.08H45.0734V99.5044C45.0734 84.9241 33.2537 73.1044 18.6734 73.1044H8.15633C5.30987 73.1044 2.56862 73.5549 0 74.3885V40.48C0 25.8997 11.8197 14.08 26.4 14.08H61.6Z" fill="#71C9FF"/>
<path fill-rule="evenodd" clip-rule="evenodd" d="M61.6 14.08C61.8873 14.08 62.1736 14.0846 62.4587 14.0937C65.8147 24.416 75.3582 31.9474 86.7116 32.3102C87.5479 34.8827 88 37.6286 88 40.48V75.68C88 90.2603 76.1803 102.08 61.6 102.08H45.0734V99.5044C45.0734 84.9241 33.2537 73.1044 18.6734 73.1044H8.15633C5.30987 73.1044 2.56862 73.5549 0 74.3885V40.48C0 25.8997 11.8197 14.08 26.4 14.08H61.6Z" fill="#71C9FF"/>
<path d="M16.0977 43.5922C16.0977 34.4054 23.545 26.9581 32.7318 26.9581H53.1221C62.3088 26.9581 69.7562 34.4054 69.7562 43.5922C69.7562 52.779 62.3088 60.2263 53.122 60.2263H32.7318C23.545 60.2263 16.0977 52.779 16.0977 43.5922Z" fill="white"/>
<path d="M16.0977 43.5922C16.0977 34.4054 23.545 26.9581 32.7318 26.9581H53.1221C62.3088 26.9581 69.7562 34.4054 69.7562 43.5922C69.7562 52.779 62.3088 60.2263 53.122 60.2263H32.7318C23.545 60.2263 16.0977 52.779 16.0977 43.5922Z" fill="white"/>
<path d="M47.3864 56.9723C45.5161 54.0279 46.3869 50.1249 49.3313 48.2546C52.2757 46.3844 56.1788 47.2551 58.049 50.1995L76.0282 78.5048C77.8985 81.4492 77.0277 85.3523 74.0833 87.2225C71.1389 89.0928 67.2359 88.222 65.3656 85.2776L47.3864 56.9723Z" fill="white"/>
<path d="M128.267 55.1344C133.993 53.8672 137.137 53.1632 137.701 53.0224C137.888 52.9755 138.287 52.9051 138.897 52.8112C139.508 52.6704 139.977 52.5531 140.305 52.4592C140.634 52.3653 140.986 52.2245 141.361 52.0368C141.784 51.8491 142.112 51.6379 142.347 51.4032C144.224 49.4789 144.6 46.9915 143.473 43.9408C142.723 41.9227 140.916 40.5851 138.053 39.928C137.255 39.7403 136.433 39.6464 135.589 39.6464C134.744 39.5995 133.852 39.6699 132.913 39.8576C132.022 39.9984 131.247 40.1392 130.59 40.28C129.98 40.4208 129.159 40.632 128.126 40.9136C127.188 41.1952 126.765 41.7819 126.859 42.6736C126.906 43.3776 127 44.5744 127.141 46.264C127.281 47.9067 127.399 49.1739 127.493 50.0656C127.493 50.2533 127.751 51.9429 128.267 55.1344ZM112.99 28.2416C118.153 26.2235 123.057 25.1675 127.704 25.0736C128.83 25.0267 131.224 24.9093 134.885 24.7216C138.545 24.4869 141.385 24.3931 143.403 24.44C150.021 24.5808 155.113 27.256 158.68 32.4656C161.59 36.6896 162.2 41.6176 160.51 47.2496C159.055 52.0837 156.404 56.2843 152.555 59.8512C152.461 59.8981 151.663 60.5083 150.161 61.6816L150.513 62.1744C153.658 63.1131 155.324 63.6059 155.512 63.6528C158.046 64.3099 159.572 66.3515 160.088 69.7776C160.323 71.4672 160.534 73.2272 160.721 75.0576C160.909 76.888 161.097 79.0235 161.285 81.464C161.472 83.9045 161.613 85.6645 161.707 86.744C161.801 87.7765 161.285 88.3632 160.158 88.504C153.024 89.4427 148.613 90.0528 146.923 90.3344C146.078 90.4752 145.468 90.3813 145.093 90.0528C144.764 89.7712 144.553 89.2315 144.459 88.4336C144.365 87.5888 144.201 86.3451 143.966 84.7024C143.779 83.1067 143.638 82.0272 143.544 81.464C143.215 78.8827 141.76 77.6155 139.179 77.6624C136.128 77.6624 134.368 77.6624 133.899 77.6624C132.82 77.6624 132.045 77.8736 131.576 78.296C131.107 78.6715 130.848 79.3989 130.801 80.4784C130.755 80.9477 130.59 84.1157 130.309 89.9824C130.168 90.0763 130.051 90.1232 129.957 90.1232C128.22 90.264 125.733 90.4752 122.494 90.7568C119.256 91.0384 116.956 91.2261 115.595 91.32C114.985 91.4139 114.469 91.2027 114.046 90.6864C113.671 90.1701 113.483 89.4192 113.483 88.4336C113.436 88.0112 113.413 85.6411 113.413 81.3232C113.413 70.9979 113.413 64.2629 113.413 61.1184C113.413 60.2736 113.389 57.3403 113.342 52.3184C113.342 47.2965 113.342 43.448 113.342 40.7728C113.342 39.5995 113.389 37.9099 113.483 35.704C113.624 33.4512 113.694 31.7851 113.694 30.7056C113.694 30.4709 113.647 30.2363 113.553 30.0016C113.507 29.7669 113.413 29.4619 113.272 29.0864C113.131 28.7109 113.037 28.4293 112.99 28.2416ZM166.142 26.0592C166.377 26.0123 166.705 25.9184 167.128 25.7776C167.597 25.6368 167.996 25.5429 168.325 25.496C168.653 25.4021 168.982 25.3552 169.31 25.3552C170.39 25.3552 172.807 25.3552 176.561 25.3552C180.363 25.3552 182.827 25.3317 183.953 25.2848C184.939 25.2379 185.643 25.4256 186.065 25.848C186.535 26.2235 186.91 26.904 187.192 27.8896C188.506 33.0992 190.055 38.872 191.838 45.208C191.838 45.208 191.909 45.4896 192.049 46.0528C192.19 46.5691 192.308 47.1088 192.401 47.672C192.542 48.1883 192.707 48.7515 192.894 49.3616C193.082 49.9248 193.223 50.3237 193.317 50.5584C194.302 48.3056 195.593 44.0347 197.189 37.7456C198.784 31.4096 199.958 27.3733 200.709 25.6368C207.843 25.5429 211.949 25.496 213.029 25.496C213.357 25.496 214.225 25.4491 215.633 25.3552C217.088 25.2613 218.215 25.2379 219.013 25.2848C220.139 25.3787 220.82 25.6603 221.054 26.1296C221.336 26.5989 221.219 27.3264 220.702 28.312C220.092 29.5323 219.13 31.9493 217.816 35.5632C216.502 39.1771 215.493 41.6411 214.789 42.9552C212.348 47.6485 209.908 52.3184 207.467 56.9648C207.092 57.7157 206.716 58.3024 206.341 58.7248C204.839 60.2736 204.182 62.4795 204.369 65.3424C204.51 67.5013 204.557 71.2325 204.51 76.536C204.51 81.7925 204.581 85.5707 204.721 87.8704C202.422 88.4805 199.395 88.8091 195.64 88.856C191.932 88.9499 188.788 88.8795 186.206 88.6448L182.334 88.2928C182.24 87.0256 182.147 85.3829 182.053 83.3648C181.959 81.3936 181.818 78.0848 181.63 73.4384C181.489 68.7451 181.466 65.0139 181.56 62.2448C181.701 60.8837 181.701 59.5931 181.56 58.3728C181.419 57.1056 181.091 55.8619 180.574 54.6416C180.105 53.3744 179.636 52.3419 179.166 51.544C178.744 50.6992 178.11 49.5963 177.265 48.2352C176.468 46.8741 175.881 45.8651 175.505 45.208C174.755 43.8 173.581 41.336 171.985 37.816C170.39 34.2491 169.24 31.832 168.536 30.5648C168.348 30.1424 167.973 29.4619 167.409 28.5232C166.893 27.5376 166.471 26.7163 166.142 26.0592ZM241.259 65.5536C241.071 67.0555 240.766 70.8336 240.344 76.888C239.921 82.9424 239.593 86.8379 239.358 88.5744H223.518C223.518 87.448 223.424 85.4533 223.237 82.5904C223.096 79.7275 223.025 77.4981 223.025 75.9024C223.072 73.8373 223.213 70.7163 223.448 66.5392C223.729 62.3621 223.894 59.2176 223.941 57.1056C223.988 54.5243 223.964 50.8635 223.87 46.1232C223.823 41.336 223.8 38.2149 223.8 36.76C223.753 36.5253 223.87 34.2021 224.152 29.7904C225.56 29.2741 227.085 28.8987 228.728 28.664C230.371 28.4293 231.755 28.312 232.881 28.312C234.055 28.312 235.627 28.3355 237.598 28.3824C239.569 28.4293 241.001 28.4528 241.893 28.4528C242.456 28.4528 243.089 28.8752 243.793 29.72C246.656 33.3808 250.317 41.1717 254.776 53.0928C254.823 53.1867 255.409 54.5008 256.536 57.0352C257.052 54.4069 257.521 49.4789 257.944 42.2512C258.413 34.9765 258.906 30.072 259.422 27.5376C268.199 27.5376 273.056 27.5141 273.995 27.4672C274.746 27.4672 275.309 27.6549 275.685 28.0304C276.107 28.4059 276.365 28.7813 276.459 29.1568C276.553 29.4853 276.623 29.9547 276.67 30.5648C276.811 32.7237 276.905 36.5253 276.952 41.9696C276.952 43.5653 276.881 45.8416 276.741 48.7984C276.647 50.4411 276.506 52.8112 276.318 55.9088C276.131 58.9595 275.966 61.752 275.825 64.2864C275.732 66.7739 275.638 69.1205 275.544 71.3264C275.45 74.0016 275.52 77.6624 275.755 82.3088C275.802 82.9659 275.685 83.4352 275.403 83.7168C275.168 84.0453 274.746 84.3269 274.136 84.5616C272.071 85.2656 270.053 85.7584 268.081 86.04C266.11 86.3685 264.233 86.5093 262.449 86.4624C260.666 86.4624 258.601 86.4389 256.254 86.392C255.503 86.392 254.846 86.3685 254.283 86.3216C253.72 86.2747 253.321 86.2512 253.086 86.2512C252.852 86.2512 252.195 86.2747 251.115 86.3216C250.364 86.3216 249.801 86.1573 249.425 85.8288C249.097 85.5472 248.815 85.0544 248.581 84.3504C248.205 83.1771 247.079 80.0091 245.201 74.8464C243.371 69.6837 242.292 66.6096 241.963 65.624L241.259 65.5536ZM303.633 63.9344C304.056 68.7216 304.337 71.5376 304.478 72.3824C304.525 72.6171 304.783 72.8517 305.253 73.0864C305.769 73.3211 306.215 73.4384 306.59 73.4384C308.702 73.4384 311.729 73.3915 315.672 73.2976C319.614 73.2037 322.36 73.1568 323.909 73.1568C324.8 73.1568 326.068 73.2976 327.71 73.5792C328.649 73.72 329.001 74.3301 328.766 75.4096C328.25 78.2256 327.921 80.3611 327.781 81.816C327.546 84.5851 326.161 86.2981 323.627 86.9552C319.215 88.0816 313.912 88.5744 307.717 88.4336C306.872 88.3867 301.803 88.3397 292.51 88.2928C290.07 88.2928 288.333 87.8469 287.301 86.9552C286.315 86.1104 285.635 84.4677 285.259 82.0272C284.555 77.1931 284.109 73.0629 283.921 69.6368C283.593 63.9579 283.593 59.6635 283.921 56.7536C284.297 53.4683 285.376 46.968 287.16 37.2528C287.348 36.1733 287.911 34.4133 288.849 31.9728C289.366 30.5648 290.187 29.8373 291.313 29.7904C292.064 29.7904 293.425 29.6965 295.397 29.5088C297.368 29.3211 298.87 29.2272 299.902 29.2272C304.736 29.2741 309.359 28.6875 313.771 27.4672C314.71 27.4203 315.249 27.3968 315.39 27.3968C315.578 27.3499 316.165 27.3968 317.15 27.5376C318.136 27.6784 318.723 27.7488 318.91 27.7488C319.661 27.8427 320.459 27.96 321.304 28.1008C322.149 28.1947 323.087 28.312 324.12 28.4528C325.152 28.5936 325.974 28.7109 326.584 28.8048C327.663 28.9456 328.203 29.6261 328.203 30.8464C328.156 31.9728 328.133 33.5685 328.133 35.6336C328.133 37.6517 328.133 39.2475 328.133 40.4208C328.133 41.5003 327.757 42.392 327.006 43.096C326.302 43.7531 325.411 44.0816 324.331 44.0816C324.237 44.0816 322.665 44.0581 319.614 44.0112C316.611 43.9173 315.062 43.9173 314.968 44.0112C312.574 44.1989 309.923 44.6683 307.013 45.4192C306.637 45.5131 306.262 46.3344 305.886 47.8832C305.839 48.024 305.933 48.2352 306.168 48.5168C306.403 48.7984 306.614 48.9627 306.801 49.0096C309.711 49.6197 311.87 49.9717 313.278 50.0656C314.827 50.2064 316.986 50.3472 319.755 50.488C322.571 50.6288 324.472 50.7227 325.457 50.7696C326.396 50.8165 327.053 51.0512 327.429 51.4736C327.804 51.8491 327.968 52.4827 327.921 53.3744C327.921 57.5045 327.851 60.4379 327.71 62.1744C327.663 62.5499 327.499 62.9488 327.217 63.3712C326.936 63.7467 326.607 64.0283 326.232 64.216C325.012 64.7792 323.721 65.1312 322.36 65.272C320.529 65.4128 318.699 65.4832 316.869 65.4832C313.443 65.4832 309.993 65.2251 306.52 64.7088C306.473 64.6619 305.511 64.4037 303.633 63.9344Z" fill="#71C9FF"/>
</svg>